<mxfile host="app.diagrams.net" modified="2022-09-12T22:41:50.642Z" agent="5.0 (Windows NT 10.0; Win64; x64) AppleWebKit/537.36 (KHTML, like Gecko) Chrome/105.0.0.0 Safari/537.36 Edg/105.0.1343.33" etag="SVCKYQHRuSnGNlRzKGN5" version="20.3.0" type="github">
  <diagram id="OfqVQxtntE4XDZsR6VOQ" name="Page-1">
    <mxGraphModel dx="2127" dy="1293" grid="1" gridSize="10" guides="1" tooltips="1" connect="1" arrows="1" fold="1" page="1" pageScale="1" pageWidth="827" pageHeight="1169" math="0" shadow="0">
      <root>
        <mxCell id="0" />
        <mxCell id="1" parent="0" />
        <mxCell id="IAK387HgVo09gBc9gvaZ-1" value="Superadministrador" style="swimlane;fontStyle=1;align=center;verticalAlign=top;childLayout=stackLayout;horizontal=1;startSize=26;horizontalStack=0;resizeParent=1;resizeParentMax=0;resizeLast=0;collapsible=1;marginBottom=0;" parent="1" vertex="1">
          <mxGeometry x="40" y="320" width="200" height="190" as="geometry" />
        </mxCell>
        <mxCell id="IAK387HgVo09gBc9gvaZ-2" value="- Nombre: String&#xa;- Id : Int&#xa;- Rol : String&#xa;- Email : String" style="text;strokeColor=none;fillColor=none;align=left;verticalAlign=top;spacingLeft=4;spacingRight=4;overflow=hidden;rotatable=0;points=[[0,0.5],[1,0.5]];portConstraint=eastwest;" parent="IAK387HgVo09gBc9gvaZ-1" vertex="1">
          <mxGeometry y="26" width="200" height="64" as="geometry" />
        </mxCell>
        <mxCell id="IAK387HgVo09gBc9gvaZ-3" value="" style="line;strokeWidth=1;fillColor=none;align=left;verticalAlign=middle;spacingTop=-1;spacingLeft=3;spacingRight=3;rotatable=0;labelPosition=right;points=[];portConstraint=eastwest;" parent="IAK387HgVo09gBc9gvaZ-1" vertex="1">
          <mxGeometry y="90" width="200" height="8" as="geometry" />
        </mxCell>
        <mxCell id="IAK387HgVo09gBc9gvaZ-4" value="+ getNombre();String&#xa;+setNombre(): void&#xa;+getId(): int&#xa;+setiD(): void&#xa;+getRol(): String&#xa;+setRol(): void&#xa;&#xa;" style="text;strokeColor=none;fillColor=none;align=left;verticalAlign=top;spacingLeft=4;spacingRight=4;overflow=hidden;rotatable=0;points=[[0,0.5],[1,0.5]];portConstraint=eastwest;" parent="IAK387HgVo09gBc9gvaZ-1" vertex="1">
          <mxGeometry y="98" width="200" height="92" as="geometry" />
        </mxCell>
        <mxCell id="IAK387HgVo09gBc9gvaZ-5" value="Usuario" style="swimlane;fontStyle=1;align=center;verticalAlign=top;childLayout=stackLayout;horizontal=1;startSize=26;horizontalStack=0;resizeParent=1;resizeParentMax=0;resizeLast=0;collapsible=1;marginBottom=0;" parent="1" vertex="1">
          <mxGeometry x="-120" y="680" width="200" height="286" as="geometry" />
        </mxCell>
        <mxCell id="IAK387HgVo09gBc9gvaZ-6" value="- Telefono : int&#xa;- Dirección : Strig&#xa;- Metodo pago : String&#xa;- Fecha de nacimiento: String&#xa;- Genero: Char&#xa;- Compra: string " style="text;strokeColor=none;fillColor=none;align=left;verticalAlign=top;spacingLeft=4;spacingRight=4;overflow=hidden;rotatable=0;points=[[0,0.5],[1,0.5]];portConstraint=eastwest;" parent="IAK387HgVo09gBc9gvaZ-5" vertex="1">
          <mxGeometry y="26" width="200" height="94" as="geometry" />
        </mxCell>
        <mxCell id="IAK387HgVo09gBc9gvaZ-7" value="" style="line;strokeWidth=1;fillColor=none;align=left;verticalAlign=middle;spacingTop=-1;spacingLeft=3;spacingRight=3;rotatable=0;labelPosition=right;points=[];portConstraint=eastwest;" parent="IAK387HgVo09gBc9gvaZ-5" vertex="1">
          <mxGeometry y="120" width="200" height="8" as="geometry" />
        </mxCell>
        <mxCell id="IAK387HgVo09gBc9gvaZ-8" value="+ getTelefono(): String&#xa;+ setTelefono() : void&#xa;+ getDireccion(): String&#xa;+ setDirección(): void&#xa;+ getMetodopago : String&#xa;+ setMetodopago : void&#xa;+ getFecha(): string&#xa;+ setfecha(): void&#xa;+ getCompra(): string&#xa;+ setCompra(): void&#xa;" style="text;strokeColor=none;fillColor=none;align=left;verticalAlign=top;spacingLeft=4;spacingRight=4;overflow=hidden;rotatable=0;points=[[0,0.5],[1,0.5]];portConstraint=eastwest;" parent="IAK387HgVo09gBc9gvaZ-5" vertex="1">
          <mxGeometry y="128" width="200" height="158" as="geometry" />
        </mxCell>
        <mxCell id="IAK387HgVo09gBc9gvaZ-9" value="Administrador" style="swimlane;fontStyle=1;align=center;verticalAlign=top;childLayout=stackLayout;horizontal=1;startSize=26;horizontalStack=0;resizeParent=1;resizeParentMax=0;resizeLast=0;collapsible=1;marginBottom=0;" parent="1" vertex="1">
          <mxGeometry x="120" y="680" width="160" height="170" as="geometry" />
        </mxCell>
        <mxCell id="IAK387HgVo09gBc9gvaZ-10" value="- Sede : string&#xa;- Dirección : string" style="text;strokeColor=none;fillColor=none;align=left;verticalAlign=top;spacingLeft=4;spacingRight=4;overflow=hidden;rotatable=0;points=[[0,0.5],[1,0.5]];portConstraint=eastwest;" parent="IAK387HgVo09gBc9gvaZ-9" vertex="1">
          <mxGeometry y="26" width="160" height="44" as="geometry" />
        </mxCell>
        <mxCell id="IAK387HgVo09gBc9gvaZ-11" value="" style="line;strokeWidth=1;fillColor=none;align=left;verticalAlign=middle;spacingTop=-1;spacingLeft=3;spacingRight=3;rotatable=0;labelPosition=right;points=[];portConstraint=eastwest;" parent="IAK387HgVo09gBc9gvaZ-9" vertex="1">
          <mxGeometry y="70" width="160" height="28" as="geometry" />
        </mxCell>
        <mxCell id="IAK387HgVo09gBc9gvaZ-12" value="+ getSede(): string&#xa;+ setSede(); void&#xa;+ getDireccion(): string&#xa;+ setDireccion(); void" style="text;strokeColor=none;fillColor=none;align=left;verticalAlign=top;spacingLeft=4;spacingRight=4;overflow=hidden;rotatable=0;points=[[0,0.5],[1,0.5]];portConstraint=eastwest;" parent="IAK387HgVo09gBc9gvaZ-9" vertex="1">
          <mxGeometry y="98" width="160" height="72" as="geometry" />
        </mxCell>
        <mxCell id="IAK387HgVo09gBc9gvaZ-13" value="Producto" style="swimlane;fontStyle=1;align=center;verticalAlign=top;childLayout=stackLayout;horizontal=1;startSize=26;horizontalStack=0;resizeParent=1;resizeParentMax=0;resizeLast=0;collapsible=1;marginBottom=0;" parent="1" vertex="1">
          <mxGeometry x="320" y="680" width="160" height="274" as="geometry" />
        </mxCell>
        <mxCell id="IAK387HgVo09gBc9gvaZ-14" value="- Ingredientes : string&#xa;- Precio : double&#xa;- Existencias: int&#xa;- Puntuación : double&#xa;- Comentarios ; string" style="text;strokeColor=none;fillColor=none;align=left;verticalAlign=top;spacingLeft=4;spacingRight=4;overflow=hidden;rotatable=0;points=[[0,0.5],[1,0.5]];portConstraint=eastwest;" parent="IAK387HgVo09gBc9gvaZ-13" vertex="1">
          <mxGeometry y="26" width="160" height="74" as="geometry" />
        </mxCell>
        <mxCell id="IAK387HgVo09gBc9gvaZ-15" value="" style="line;strokeWidth=1;fillColor=none;align=left;verticalAlign=middle;spacingTop=-1;spacingLeft=3;spacingRight=3;rotatable=0;labelPosition=right;points=[];portConstraint=eastwest;" parent="IAK387HgVo09gBc9gvaZ-13" vertex="1">
          <mxGeometry y="100" width="160" height="8" as="geometry" />
        </mxCell>
        <mxCell id="IAK387HgVo09gBc9gvaZ-16" value="+ getIngredientes(): string&#xa;+ setIngredientes (): void&#xa;+ getPrecio(): double&#xa;+ setPrecio(): void&#xa;+ getExistencias(): int&#xa;+ setExistencias (): void&#xa;+ getPuntuacion(): double&#xa;+ setPuntuacion (): void&#xa;+ getComentarios(): string&#xa;+ setComentarios(): void&#xa;" style="text;strokeColor=none;fillColor=none;align=left;verticalAlign=top;spacingLeft=4;spacingRight=4;overflow=hidden;rotatable=0;points=[[0,0.5],[1,0.5]];portConstraint=eastwest;" parent="IAK387HgVo09gBc9gvaZ-13" vertex="1">
          <mxGeometry y="108" width="160" height="166" as="geometry" />
        </mxCell>
        <mxCell id="IAK387HgVo09gBc9gvaZ-17" value="Extends" style="endArrow=block;endSize=16;endFill=0;html=1;rounded=0;exitX=0.5;exitY=0;exitDx=0;exitDy=0;entryX=0.185;entryY=1.033;entryDx=0;entryDy=0;entryPerimeter=0;edgeStyle=orthogonalEdgeStyle;" parent="1" source="IAK387HgVo09gBc9gvaZ-5" target="IAK387HgVo09gBc9gvaZ-4" edge="1">
          <mxGeometry width="160" relative="1" as="geometry">
            <mxPoint x="100" y="680" as="sourcePoint" />
            <mxPoint y="590" as="targetPoint" />
            <Array as="points">
              <mxPoint x="-20" y="600" />
              <mxPoint x="77" y="600" />
            </Array>
          </mxGeometry>
        </mxCell>
        <mxCell id="IAK387HgVo09gBc9gvaZ-18" value="Extends" style="endArrow=block;endSize=16;endFill=0;html=1;rounded=0;exitX=0.5;exitY=0;exitDx=0;exitDy=0;entryX=0.55;entryY=1.054;entryDx=0;entryDy=0;entryPerimeter=0;edgeStyle=orthogonalEdgeStyle;" parent="1" target="IAK387HgVo09gBc9gvaZ-4" edge="1">
          <mxGeometry width="160" relative="1" as="geometry">
            <mxPoint x="200" y="680" as="sourcePoint" />
            <mxPoint x="297" y="543.0360000000001" as="targetPoint" />
            <Array as="points">
              <mxPoint x="150" y="680" />
            </Array>
          </mxGeometry>
        </mxCell>
        <mxCell id="IAK387HgVo09gBc9gvaZ-19" value="Extends" style="endArrow=block;endSize=16;endFill=0;html=1;rounded=0;exitX=0.5;exitY=0;exitDx=0;exitDy=0;entryX=0.82;entryY=1.054;entryDx=0;entryDy=0;entryPerimeter=0;edgeStyle=orthogonalEdgeStyle;" parent="1" target="IAK387HgVo09gBc9gvaZ-4" edge="1">
          <mxGeometry x="-0.0655" width="160" relative="1" as="geometry">
            <mxPoint x="360" y="680" as="sourcePoint" />
            <mxPoint x="310" y="544.9680000000001" as="targetPoint" />
            <Array as="points">
              <mxPoint x="360" y="600" />
              <mxPoint x="204" y="600" />
            </Array>
            <mxPoint as="offset" />
          </mxGeometry>
        </mxCell>
      </root>
    </mxGraphModel>
  </diagram>
</mxfile>
